<?xml version="1.0" encoding="UTF-8"?>
<!-- Created with Inkscape (http://www.inkscape.org/) -->
<svg width="36.162mm" height="50.856mm" version="1.1" viewBox="0 0 36.162 50.856" xmlns="http://www.w3.org/2000/svg" xmlns:cc="http://creativecommons.org/ns#" xmlns:dc="http://purl.org/dc/elements/1.1/" xmlns:rdf="http://www.w3.org/1999/02/22-rdf-syntax-ns#">
 <metadata>
  <rdf:RDF>
   <cc:Work rdf:about="">
    <dc:format>image/svg+xml</dc:format>
    <dc:type rdf:resource="http://purl.org/dc/dcmitype/StillImage"/>
    <dc:title/>
   </cc:Work>
  </rdf:RDF>
 </metadata>
 <g transform="translate(-35.214 -44.786)">
  <g transform="translate(-93.8 -16.676)">
   <g transform="translate(-19.371 6.9926)" style="font-feature-settings:normal;font-variant-caps:normal;font-variant-ligatures:normal;font-variant-numeric:normal" aria-label="ELBR US/ B00T CAMP">
    <g transform="translate(.13363 -7.8845)" fill="#29edff" stroke-width=".26458">
     <path d="m152.96 72.256v0.74083h-2.8787v2.0955h2.794v0.74083h-2.794v2.7411h2.8787v0.74083h-3.6618v-7.0591z"/>
     <path d="m160.15 72.256h0.78317v6.3182h1.9473v0.74083h-2.7305z"/>
     <path d="m169.83 72.256h1.27q1.0583 0 1.6192 0.4445 0.635 0.48683 0.635 1.4605 0 0.91017-0.6985 1.3864 0.67733 0.16933 1.0054 0.68792 0.33866 0.508 0.33866 1.0901 0 0.47625-0.21166 0.87842-0.20109 0.40217-0.508 0.64558-0.59267 0.46567-1.6933 0.46567h-1.7568zm0.78317 0.74083v2.3601h0.59266q0.15875 0 0.30692-0.01058 0.14817-0.02117 0.34925-0.08467 0.21167-0.07408 0.35983-0.1905 0.15875-0.11642 0.26459-0.34925 0.10583-0.23283 0.10583-0.53975 0-0.32808-0.127-0.56092-0.127-0.24342-0.28575-0.35983t-0.381-0.17992-0.33867-0.07408q-0.11641-0.01058-0.23283-0.01058zm0 3.0586v2.5188h0.89958q0.85725 0 1.2382-0.29633 0.46567-0.33867 0.46567-0.97367 0-0.70908-0.60325-1.0372-0.381-0.21167-1.1959-0.21167z"/>
     <path d="m180.33 72.256h1.1324q1.143 0 1.7145 0.39158 0.77258 0.51858 0.77258 1.5663 0 0.81492-0.49741 1.3547-0.48684 0.53975-1.2806 0.59267l2.2437 3.1538h-0.9525l-2.1484-3.0903h-0.20108v3.0903h-0.78317zm0.78317 0.74083v2.5294h0.49742q0.73025 0 1.143-0.33867 0.41275-0.33867 0.41275-0.9525 0-0.71967-0.56092-1.0372-0.35983-0.20108-1.016-0.20108z"/>
     <path d="m149.48 83.435v4.3286q0 0.40217 0.0106 0.62442 0.0212 0.22225 0.14817 0.55033 0.13758 0.3175 0.40217 0.53975 0.47625 0.40217 1.1642 0.40217 0.68792 0 1.1642-0.40217 0.26458-0.22225 0.39158-0.53975 0.13759-0.32808 0.14817-0.55033 0.0212-0.22225 0.0212-0.62442v-4.3286h0.78316v4.5402q0 1.0795-0.4445 1.6933-0.32808 0.4445-0.86783 0.6985-0.52917 0.254-1.1959 0.254t-1.2065-0.254q-0.52916-0.254-0.85725-0.6985-0.4445-0.61383-0.4445-1.6933v-4.5402z"/>
     <path d="m163.48 84.419-0.62441 0.41275q-0.16934-0.32808-0.41275-0.52917-0.3175-0.24342-0.79375-0.24342-0.52917 0-0.85725 0.30692-0.32809 0.29633-0.32809 0.78317 0 0.35983 0.26459 0.61383 0.21166 0.21167 0.74083 0.4445l0.67733 0.29633q0.75142 0.32808 1.0901 0.66675 0.508 0.508 0.508 1.2806 0 0.96308-0.635 1.5663t-1.5981 0.60325q-0.9525 0-1.5346-0.5715-0.47625-0.46567-0.65617-1.2488l0.762-0.21167q0.0741 0.52917 0.42334 0.89958 0.39158 0.39158 1.016 0.39158 0.67733 0 1.0478-0.40217 0.37041-0.41275 0.37041-0.99483 0-0.508-0.34925-0.8255-0.20108-0.1905-0.84666-0.48683l-0.635-0.29633q-0.64559-0.29633-0.94192-0.58208-0.48683-0.46567-0.48683-1.1536 0-0.81492 0.55033-1.3123 0.56092-0.508 1.4288-0.508 0.65617 0 1.1324 0.3175 0.43391 0.28575 0.68791 0.78317z"/>
     <path d="m168.84 92.226 5.4398-9.8319 0.61383 0.3175-5.4398 9.8108z"/>
     <path d="m149.1 94.547h1.27q1.0583 0 1.6192 0.4445 0.635 0.48683 0.635 1.4605 0 0.91017-0.6985 1.3864 0.67734 0.16933 1.0054 0.68791 0.33867 0.508 0.33867 1.0901 0 0.47625-0.21167 0.87842-0.20108 0.40216-0.508 0.64558-0.59267 0.46567-1.6933 0.46567h-1.7568zm0.78317 0.74083v2.3601h0.59267q0.15875 0 0.30691-0.0106 0.14817-0.0212 0.34925-0.0847 0.21167-0.0741 0.35984-0.1905 0.15875-0.11642 0.26458-0.34925 0.10583-0.23283 0.10583-0.53975 0-0.32808-0.127-0.56092-0.127-0.24341-0.28575-0.35983-0.15875-0.11642-0.381-0.17992t-0.33866-0.07408q-0.11642-0.01058-0.23284-0.01058zm0 3.0586v2.5188h0.89958q0.85725 0 1.2382-0.29633 0.46567-0.33867 0.46567-0.97367 0-0.70907-0.60325-1.0372-0.381-0.21167-1.1959-0.21167z"/>
     <path d="m163.3 100.68q-0.73025 1.0583-1.8098 1.0583t-1.8098-1.0583q-0.70909-1.0266-0.70909-2.5929 0-1.5663 0.70909-2.5929 0.73025-1.0583 1.8098-1.0583t1.8098 1.0583q0.70908 1.0266 0.70908 2.5929 0 1.5663-0.70908 2.5929zm-0.59267-4.7413q-0.48683-0.78316-1.2171-0.78316t-1.2171 0.78316q-0.51858 0.8255-0.51858 2.1484 0 1.3229 0.51858 2.1484 0.48684 0.78317 1.2171 0.78317t1.2171-0.78317q0.51858-0.8255 0.51858-2.1484 0-1.3229-0.51858-2.1484z"/>
     <path d="m173.75 100.68q-0.73025 1.0583-1.8098 1.0583t-1.8098-1.0583q-0.70908-1.0266-0.70908-2.5929 0-1.5663 0.70908-2.5929 0.73025-1.0583 1.8098-1.0583t1.8098 1.0583q0.70909 1.0266 0.70909 2.5929 0 1.5663-0.70909 2.5929zm-0.59266-4.7413q-0.48684-0.78316-1.2171-0.78316t-1.2171 0.78316q-0.51858 0.8255-0.51858 2.1484 0 1.3229 0.51858 2.1484 0.48683 0.78317 1.2171 0.78317t1.2171-0.78317q0.51858-0.8255 0.51858-2.1484 0-1.3229-0.51858-2.1484z"/>
     <path d="m184.4 95.288h-1.7145v6.3182h-0.78317v-6.3182h-1.7145v-0.74083h4.2122z"/>
     <path d="m154.03 106.44v0.97367q-0.42333-0.42333-0.92075-0.65617-0.60325-0.27516-1.2171-0.27516-1.2171 0-2.032 0.85725-0.80433 0.84666-0.80433 2.0849 0 1.3335 0.87841 2.1061 0.889 0.77258 1.9685 0.77258 0.67734 0 1.3123-0.32808 0.4445-0.22225 0.81491-0.59267v0.97367q-0.96308 0.68791-2.1272 0.68791-1.5663 0-2.6141-1.0478-1.0372-1.0478-1.0372-2.5823 0-1.5769 1.0478-2.6247 1.0583-1.0478 2.6458-1.0478 1.1642 0 2.0849 0.6985z"/>
     <path d="m163.9 112.91-0.8255-1.9897h-3.0057l-0.84666 1.9897h-0.86784l3.2491-7.3978 3.1644 7.3978zm-3.5242-2.7305h2.3918l-1.1853-2.8258z"/>
     <path d="m168.76 112.91h-0.80433l1.1748-7.4507 2.7093 5.9584 2.7622-5.969 1.1007 7.4612h-0.80434l-0.66675-4.9107-2.4024 5.207-2.3707-5.207z"/>
     <path d="m180.51 105.86h1.2806q1.2065 0 1.778 0.49742 0.64558 0.55033 0.64558 1.5134 0 0.8255-0.56091 1.4076-0.55034 0.5715-1.6722 0.5715h-0.68792v3.0692h-0.78316zm0.78316 0.74083v2.5082h0.64559q0.6985 0 1.0901-0.33866 0.40217-0.33867 0.40217-0.94192 0-1.2277-1.5558-1.2277z"/>
    </g>
   </g>
   <text x="129.39888" y="67.201988" fill="#000000" font-family="'Proxima Nova'" font-size="8.6053px" font-weight="200" letter-spacing="0px" stroke-width=".21513" word-spacing="0px" style="font-feature-settings:normal;font-variant-caps:normal;font-variant-ligatures:normal;font-variant-numeric:normal;line-height:1.25" xml:space="preserve"><tspan x="129.39888" y="67.201988" fill="#ffbc5b" font-family="'Proxima Nova'" font-size="8.6053px" font-weight="200" stroke-width=".21513" style="font-feature-settings:normal;font-variant-caps:normal;font-variant-ligatures:normal;font-variant-numeric:normal">Игротека</tspan></text>
  </g>
 </g>
</svg>
