<?xml version="1.0" encoding="UTF-8" standalone="no"?>
<!-- Created with Inkscape (http://www.inkscape.org/) -->

<svg
   xmlns:dc="http://purl.org/dc/elements/1.1/"
   xmlns:cc="http://creativecommons.org/ns#"
   xmlns:rdf="http://www.w3.org/1999/02/22-rdf-syntax-ns#"
   xmlns:svg="http://www.w3.org/2000/svg"
   xmlns="http://www.w3.org/2000/svg"
   xmlns:sodipodi="http://sodipodi.sourceforge.net/DTD/sodipodi-0.dtd"
   xmlns:inkscape="http://www.inkscape.org/namespaces/inkscape"
   width="297mm"
   height="210mm"
   viewBox="0 0 297 210"
   version="1.1"
   id="svg8"
   inkscape:version="0.92.4 (f8dce91, 2019-08-02)"
   sodipodi:docname="template.svg">
  <defs
     id="defs2" />
  <sodipodi:namedview
     id="base"
     pagecolor="#242121"
     bordercolor="#666666"
     borderopacity="1.0"
     inkscape:pageopacity="0"
     inkscape:pageshadow="2"
     inkscape:zoom="1.4"
     inkscape:cx="569.41165"
     inkscape:cy="455.00983"
     inkscape:document-units="mm"
     inkscape:current-layer="layer2"
     showgrid="false"
     inkscape:pagecheckerboard="false"
     showguides="true"
     inkscape:guide-bbox="true"
     inkscape:window-width="2490"
     inkscape:window-height="1376"
     inkscape:window-x="70"
     inkscape:window-y="27"
     inkscape:window-maximized="1" />
  <metadata
     id="metadata5">
    <rdf:RDF>
      <cc:Work
         rdf:about="">
        <dc:format>image/svg+xml</dc:format>
        <dc:type
           rdf:resource="http://purl.org/dc/dcmitype/StillImage" />
        <dc:title />
      </cc:Work>
    </rdf:RDF>
  </metadata>
  <g
     inkscape:label="bg"
     inkscape:groupmode="layer"
     id="layer1"
     transform="translate(0,-87)"
     sodipodi:insensitive="true"
     style="display:inline">
    <rect
       id="rect3713"
       width="298.03424"
       height="211.09972"
       x="-0.18898807"
       y="87.034233"
       style="fill:#461fa8;fill-opacity:1;stroke-width:0.27823535" />
  </g>
  <g
     inkscape:groupmode="layer"
     id="layer2"
     inkscape:label="logo"
     style="display:inline">
    <text
       xml:space="preserve"
       style="font-style:normal;font-weight:normal;font-size:10.58333302px;line-height:1.25;font-family:sans-serif;letter-spacing:0px;word-spacing:0px;fill:#000000;fill-opacity:1;stroke:none;stroke-width:0.26458332"
       x="144.76489"
       y="83.944939"
       id="text4528"><tspan
         sodipodi:role="line"
         x="144.76489"
         y="93.308708"
         style="stroke-width:0.26458332"
         id="tspan4530" /></text>
    <g
       id="g875"
       transform="translate(-82.829837,-27.620753)">
      <g
         transform="translate(-19.37128,6.9925595)"
         id="text4536"
         style="font-style:normal;font-variant:normal;font-weight:normal;font-stretch:normal;font-size:10.58333302px;line-height:1.25;font-family:'Futura PT';-inkscape-font-specification:'Futura PT, Normal';font-variant-ligatures:normal;font-variant-caps:normal;font-variant-numeric:normal;font-feature-settings:normal;text-align:start;letter-spacing:0px;word-spacing:0px;writing-mode:lr-tb;text-anchor:start;fill:#000000;fill-opacity:1;stroke:none;stroke-width:0.26458332"
         aria-label="ELBR US/ B00T CAMP">
        <g
           transform="translate(0.13363476,-7.8844511)"
           id="g4612">
          <path
             d="m 152.95669,72.255652 v 0.740834 h -2.87867 v 2.0955 h 2.794 v 0.740833 h -2.794 v 2.741083 h 2.87867 v 0.740833 h -3.66184 v -7.059083 z"
             style="fill:#29edff;fill-opacity:1;stroke-width:0.26458332"
             id="path4544"
             inkscape:connector-curvature="0" />
          <path
             d="m 160.15447,72.255652 h 0.78317 v 6.31825 h 1.94733 v 0.740833 h -2.7305 z"
             style="fill:#29edff;fill-opacity:1;stroke-width:0.26458332"
             id="path4546"
             inkscape:connector-curvature="0" />
          <path
             d="m 169.83027,72.255652 h 1.27 q 1.05833,0 1.61925,0.4445 0.635,0.486834 0.635,1.4605 0,0.910167 -0.6985,1.386417 0.67733,0.169333 1.00542,0.687917 0.33866,0.507999 0.33866,1.090083 0,0.47625 -0.21166,0.878416 -0.20109,0.402167 -0.508,0.645584 -0.59267,0.465666 -1.69334,0.465666 h -1.75683 z m 0.78317,0.740834 v 2.360083 h 0.59266 q 0.15875,0 0.30692,-0.01058 0.14817,-0.02117 0.34925,-0.08467 0.21167,-0.07408 0.35983,-0.1905 0.15875,-0.116417 0.26459,-0.34925 0.10583,-0.232833 0.10583,-0.53975 0,-0.328083 -0.127,-0.560917 -0.127,-0.243416 -0.28575,-0.359833 -0.15875,-0.116417 -0.381,-0.179917 -0.22225,-0.0635 -0.33867,-0.07408 -0.11641,-0.01058 -0.23283,-0.01058 z m 0,3.058583 v 2.518833 h 0.89958 q 0.85725,0 1.23825,-0.296333 0.46567,-0.338667 0.46567,-0.973667 0,-0.709083 -0.60325,-1.037166 -0.381,-0.211667 -1.19592,-0.211667 z"
             style="fill:#29edff;fill-opacity:1;stroke-width:0.26458332"
             id="path4548"
             inkscape:connector-curvature="0" />
          <path
             d="m 180.32813,72.255652 h 1.13242 q 1.143,0 1.7145,0.391584 0.77258,0.518583 0.77258,1.566333 0,0.814917 -0.49741,1.354667 -0.48684,0.53975 -1.28059,0.592666 l 2.24367,3.153833 h -0.9525 l -2.14842,-3.090333 h -0.20108 v 3.090333 h -0.78317 z m 0.78317,0.740834 v 2.529416 h 0.49742 q 0.73025,0 1.143,-0.338666 0.41275,-0.338667 0.41275,-0.9525 0,-0.719667 -0.56092,-1.037167 -0.35983,-0.201083 -1.016,-0.201083 z"
             style="fill:#29edff;fill-opacity:1;stroke-width:0.26458332"
             id="path4550"
             inkscape:connector-curvature="0" />
          <path
             d="m 149.48203,83.434968 v 4.328583 q 0,0.402166 0.0106,0.624416 0.0212,0.22225 0.14817,0.550334 0.13758,0.3175 0.40217,0.53975 0.47625,0.402166 1.16416,0.402166 0.68792,0 1.16417,-0.402166 0.26458,-0.22225 0.39158,-0.53975 0.13759,-0.328084 0.14817,-0.550334 0.0212,-0.22225 0.0212,-0.624416 v -4.328583 h 0.78316 v 4.540249 q 0,1.0795 -0.4445,1.693334 -0.32808,0.4445 -0.86783,0.6985 -0.52917,0.254 -1.19592,0.254 -0.66675,0 -1.2065,-0.254 -0.52916,-0.254 -0.85725,-0.6985 -0.4445,-0.613834 -0.4445,-1.693334 v -4.540249 z"
             style="fill:#29edff;fill-opacity:1;stroke-width:0.26458332"
             id="path4552"
             inkscape:connector-curvature="0" />
          <path
             d="m 163.48019,84.419218 -0.62441,0.41275 q -0.16934,-0.328084 -0.41275,-0.529167 -0.3175,-0.243417 -0.79375,-0.243417 -0.52917,0 -0.85725,0.306917 -0.32809,0.296333 -0.32809,0.783167 0,0.359833 0.26459,0.613833 0.21166,0.211666 0.74083,0.4445 l 0.67733,0.296333 q 0.75142,0.328083 1.09009,0.66675 0.508,0.508 0.508,1.280583 0,0.963084 -0.635,1.566334 -0.635,0.60325 -1.59809,0.60325 -0.9525,0 -1.53458,-0.5715 -0.47625,-0.465667 -0.65617,-1.248834 l 0.762,-0.211666 q 0.0741,0.529166 0.42334,0.899583 0.39158,0.391583 1.016,0.391583 0.67733,0 1.04775,-0.402166 0.37041,-0.41275 0.37041,-0.994834 0,-0.508 -0.34925,-0.8255 -0.20108,-0.1905 -0.84666,-0.486833 l -0.635,-0.296333 q -0.64559,-0.296334 -0.94192,-0.582084 -0.48683,-0.465666 -0.48683,-1.153583 0,-0.814916 0.55033,-1.312333 0.56092,-0.508 1.42875,-0.508 0.65617,0 1.13242,0.3175 0.43391,0.28575 0.68791,0.783167 z"
             style="fill:#29edff;fill-opacity:1;stroke-width:0.26458332"
             id="path4554"
             inkscape:connector-curvature="0" />
          <path
             d="m 168.83691,92.2264 5.43983,-9.831916 0.61383,0.3175 -5.43983,9.81075 z"
             style="fill:#29edff;fill-opacity:1;stroke-width:0.26458332"
             id="path4556"
             inkscape:connector-curvature="0" />
          <path
             d="m 149.09978,94.547466 h 1.27 q 1.05834,0 1.61925,0.4445 0.635,0.486833 0.635,1.460492 0,0.910167 -0.6985,1.386414 0.67734,0.169327 1.00542,0.687914 0.33867,0.507997 0.33867,1.090074 0,0.47625 -0.21167,0.87842 -0.20108,0.40216 -0.508,0.64558 -0.59267,0.46567 -1.69333,0.46567 h -1.75684 z m 0.78317,0.740833 v 2.360073 h 0.59267 q 0.15875,0 0.30691,-0.0106 0.14817,-0.0212 0.34925,-0.0847 0.21167,-0.0741 0.35984,-0.190497 0.15875,-0.11642 0.26458,-0.34925 0.10583,-0.232827 0.10583,-0.539747 0,-0.328077 -0.127,-0.560917 -0.127,-0.243412 -0.28575,-0.359829 -0.15875,-0.116416 -0.381,-0.179916 -0.22225,-0.0635 -0.33866,-0.07408 -0.11642,-0.01058 -0.23284,-0.01058 z m 0,3.05857 v 2.518821 h 0.89958 q 0.85725,0 1.23825,-0.29633 0.46567,-0.33867 0.46567,-0.97367 0,-0.709074 -0.60325,-1.037154 -0.381,-0.211667 -1.19592,-0.211667 z"
             style="fill:#29edff;fill-opacity:1;stroke-width:0.26458332"
             id="path4558"
             inkscape:connector-curvature="0" />
          <path
             d="m 163.29705,100.67519 q -0.73025,1.05834 -1.80975,1.05834 -1.0795,0 -1.80975,-1.05834 -0.70909,-1.02658 -0.70909,-2.592901 0,-1.566331 0.70909,-2.592907 0.73025,-1.058333 1.80975,-1.058333 1.0795,0 1.80975,1.058333 0.70908,1.026576 0.70908,2.592907 0,1.566321 -0.70908,2.592901 z m -0.59267,-4.741309 q -0.48683,-0.783165 -1.21708,-0.783165 -0.73025,0 -1.21709,0.783165 -0.51858,0.825497 -0.51858,2.148408 0,1.322904 0.51858,2.148401 0.48684,0.78317 1.21709,0.78317 0.73025,0 1.21708,-0.78317 0.51858,-0.825497 0.51858,-2.148401 0,-1.322911 -0.51858,-2.148408 z"
             style="fill:#29edff;fill-opacity:1;stroke-width:0.26458332"
             id="path4560"
             inkscape:connector-curvature="0" />
          <path
             d="m 173.74597,100.67519 q -0.73025,1.05834 -1.80975,1.05834 -1.0795,0 -1.80975,-1.05834 -0.70908,-1.02658 -0.70908,-2.592901 0,-1.566331 0.70908,-2.592907 0.73025,-1.058333 1.80975,-1.058333 1.0795,0 1.80975,1.058333 0.70909,1.026576 0.70909,2.592907 0,1.566321 -0.70909,2.592901 z m -0.59266,-4.741309 q -0.48684,-0.783165 -1.21709,-0.783165 -0.73025,0 -1.21708,0.783165 -0.51858,0.825497 -0.51858,2.148408 0,1.322904 0.51858,2.148401 0.48683,0.78317 1.21708,0.78317 0.73025,0 1.21709,-0.78317 0.51858,-0.825497 0.51858,-2.148401 0,-1.322911 -0.51858,-2.148408 z"
             style="fill:#29edff;fill-opacity:1;stroke-width:0.26458332"
             id="path4562"
             inkscape:connector-curvature="0" />
          <path
             d="m 184.39724,95.288299 h -1.7145 v 6.318231 h -0.78317 v -6.318231 h -1.7145 v -0.740833 h 4.21217 z"
             style="fill:#29edff;fill-opacity:1;stroke-width:0.26458332"
             id="path4564"
             inkscape:connector-curvature="0" />
          <path
             d="m 154.02954,106.43711 v 0.97367 q -0.42333,-0.42333 -0.92075,-0.65617 -0.60325,-0.27516 -1.21708,-0.27516 -1.21708,0 -2.032,0.85725 -0.80433,0.84666 -0.80433,2.08491 0,1.3335 0.87841,2.10609 0.889,0.77258 1.9685,0.77258 0.67734,0 1.31234,-0.32808 0.4445,-0.22225 0.81491,-0.59267 v 0.97367 q -0.96308,0.68791 -2.12725,0.68791 -1.56633,0 -2.61408,-1.04775 -1.03717,-1.04775 -1.03717,-2.58233 0,-1.57692 1.04775,-2.62467 1.05834,-1.04775 2.64584,-1.04775 1.16416,0 2.08491,0.6985 z"
             style="fill:#29edff;fill-opacity:1;stroke-width:0.26458332"
             id="path4566"
             inkscape:connector-curvature="0" />
          <path
             d="m 163.89833,112.91411 -0.8255,-1.98966 h -3.00567 l -0.84666,1.98966 h -0.86784 l 3.24909,-7.39775 3.16441,7.39775 z m -3.52425,-2.7305 h 2.39183 l -1.18533,-2.82575 z"
             style="fill:#29edff;fill-opacity:1;stroke-width:0.26458332"
             id="path4568"
             inkscape:connector-curvature="0" />
          <path
             d="m 168.75768,112.91411 h -0.80433 l 1.17475,-7.45066 2.70933,5.95841 2.76225,-5.969 1.10067,7.46125 h -0.80434 l -0.66675,-4.91066 -2.40241,5.207 -2.37067,-5.207 z"
             style="fill:#29edff;fill-opacity:1;stroke-width:0.26458332"
             id="path4570"
             inkscape:connector-curvature="0" />
          <path
             d="m 180.50818,105.85503 h 1.28058 q 1.2065,0 1.778,0.49742 0.64558,0.55033 0.64558,1.51341 0,0.8255 -0.56091,1.40759 -0.55034,0.5715 -1.67217,0.5715 h -0.68792 v 3.06916 h -0.78316 z m 0.78316,0.74083 v 2.50825 h 0.64559 q 0.6985,0 1.09008,-0.33866 0.40217,-0.33867 0.40217,-0.94192 0,-1.22767 -1.55575,-1.22767 z"
             style="fill:#29edff;fill-opacity:1;stroke-width:0.26458332"
             id="path4572"
             inkscape:connector-curvature="0" />
        </g>
      </g>
      <text
         id="text846"
         y="67.201988"
         x="129.39888"
         style="font-style:normal;font-variant:normal;font-weight:200;font-stretch:normal;font-size:8.60525227px;line-height:1.25;font-family:'Proxima Nova';-inkscape-font-specification:'Proxima Nova, Ultra-Light';font-variant-ligatures:normal;font-variant-caps:normal;font-variant-numeric:normal;font-feature-settings:normal;text-align:start;letter-spacing:0px;word-spacing:0px;writing-mode:lr-tb;text-anchor:start;fill:#000000;fill-opacity:1;stroke:none;stroke-width:0.2151313"
         xml:space="preserve"><tspan
           style="font-style:normal;font-variant:normal;font-weight:200;font-stretch:normal;font-size:8.60525227px;font-family:'Proxima Nova';-inkscape-font-specification:'Proxima Nova, Ultra-Light';font-variant-ligatures:normal;font-variant-caps:normal;font-variant-numeric:normal;font-feature-settings:normal;text-align:start;writing-mode:lr-tb;text-anchor:start;fill:#ffbc5b;fill-opacity:1;stroke-width:0.2151313"
           y="67.201988"
           x="129.39888"
           id="tspan844"
           sodipodi:role="line">Игротека</tspan></text>
    </g>
  </g>
  <g
     inkscape:groupmode="layer"
     id="layer3"
     inkscape:label="text">
    <text
       xml:space="preserve"
       style="font-style:normal;font-variant:normal;font-weight:normal;font-stretch:normal;font-size:8.46666622px;line-height:1.25;font-family:sans-serif;-inkscape-font-specification:'sans-serif, Normal';font-variant-ligatures:normal;font-variant-caps:normal;font-variant-numeric:normal;font-feature-settings:normal;text-align:start;letter-spacing:0px;word-spacing:0px;writing-mode:lr-tb;text-anchor:start;fill:#ffffff;fill-opacity:1;stroke:none;stroke-width:0.26458332"
       x="112.52048"
       y="49.771915"
       id="text880"><tspan
         sodipodi:role="line"
         id="tspan878"
         x="112.52048"
         y="49.771915"
         style="font-style:normal;font-variant:normal;font-weight:normal;font-stretch:normal;font-size:8.46666622px;font-family:sans-serif;-inkscape-font-specification:'sans-serif, Normal';font-variant-ligatures:normal;font-variant-caps:normal;font-variant-numeric:normal;font-feature-settings:normal;text-align:start;writing-mode:lr-tb;text-anchor:start;fill:#ffffff;fill-opacity:1;stroke-width:0.26458332">Каждую субботу</tspan><tspan
         sodipodi:role="line"
         x="112.52048"
         y="60.355247"
         style="font-style:normal;font-variant:normal;font-weight:normal;font-stretch:normal;font-size:8.46666622px;font-family:sans-serif;-inkscape-font-specification:'sans-serif, Normal';font-variant-ligatures:normal;font-variant-caps:normal;font-variant-numeric:normal;font-feature-settings:normal;text-align:start;writing-mode:lr-tb;text-anchor:start;fill:#ffffff;fill-opacity:1;stroke-width:0.26458332"
         id="tspan884">настолки</tspan><tspan
         sodipodi:role="line"
         x="112.52048"
         y="70.938583"
         style="font-style:normal;font-variant:normal;font-weight:normal;font-stretch:normal;font-size:8.46666622px;font-family:sans-serif;-inkscape-font-specification:'sans-serif, Normal';font-variant-ligatures:normal;font-variant-caps:normal;font-variant-numeric:normal;font-feature-settings:normal;text-align:start;writing-mode:lr-tb;text-anchor:start;fill:#ffffff;fill-opacity:1;stroke-width:0.26458332"
         id="tspan894">с утра до вечера</tspan><tspan
         sodipodi:role="line"
         x="112.52048"
         y="81.521912"
         style="font-style:normal;font-variant:normal;font-weight:normal;font-stretch:normal;font-size:8.46666622px;font-family:sans-serif;-inkscape-font-specification:'sans-serif, Normal';font-variant-ligatures:normal;font-variant-caps:normal;font-variant-numeric:normal;font-feature-settings:normal;text-align:start;writing-mode:lr-tb;text-anchor:start;fill:#ffffff;fill-opacity:1;stroke-width:0.26458332"
         id="tspan890" /></text>
    <text
       xml:space="preserve"
       style="font-style:normal;font-variant:normal;font-weight:300;font-stretch:normal;font-size:19.81041718px;line-height:1.25;font-family:'Proxima Nova';-inkscape-font-specification:'Proxima Nova, Light';font-variant-ligatures:normal;font-variant-caps:normal;font-variant-numeric:normal;font-feature-settings:normal;text-align:start;letter-spacing:0px;word-spacing:0px;writing-mode:lr-tb;text-anchor:start;fill:#ffbc5b;fill-opacity:1;stroke:none;stroke-width:0.49526122"
       x="44.637993"
       y="109.52844"
       id="text902"><tspan
         sodipodi:role="line"
         id="tspan900"
         x="44.637993"
         y="109.52844"
         style="font-style:normal;font-variant:normal;font-weight:300;font-stretch:normal;font-size:19.81041718px;font-family:'Proxima Nova';-inkscape-font-specification:'Proxima Nova, Light';font-variant-ligatures:normal;font-variant-caps:normal;font-variant-numeric:normal;font-feature-settings:normal;text-align:start;writing-mode:lr-tb;text-anchor:start;fill:#ffbc5b;fill-opacity:1;stroke-width:0.49526122">Приходи играть!</tspan></text>
  </g>
</svg>
